<svg xmlns="http://www.w3.org/2000/svg" width="235" height="61" viewBox="0 0 235 61" fill="none">
  <path d="M6.85 50.35C5.98333 50.35 5.3 50.1167 4.8 49.65C4.33333 49.1833 4.1 48.5 4.1 47.6V17.55C4.1 16.65 4.33333 15.9667 4.8 15.5C5.3 15 6 14.75 6.9 14.75H24.7C25.4333 14.75 25.9667 14.9333 26.3 15.3C26.6667 15.6333 26.85 16.1333 26.85 16.8C26.85 17.5 26.6667 18.0333 26.3 18.4C25.9667 18.7667 25.4333 18.95 24.7 18.95H9.3V30.2H23.7C24.3667 30.2 24.8833 30.3833 25.25 30.75C25.65 31.0833 25.85 31.5833 25.85 32.25C25.85 32.95 25.65 33.4833 25.25 33.85C24.8833 34.2167 24.3667 34.4 23.7 34.4H9.3V47.6C9.3 49.4333 8.48333 50.35 6.85 50.35ZM39.3496 50.45C37.3829 50.45 35.7329 50.0833 34.3996 49.35C33.0996 48.6167 32.1163 47.5333 31.4496 46.1C30.8163 44.6333 30.4996 42.8 30.4996 40.6V27.8C30.4996 26.9333 30.7163 26.3 31.1496 25.9C31.5829 25.4667 32.1996 25.25 32.9996 25.25C33.7996 25.25 34.4163 25.4667 34.8496 25.9C35.3163 26.3 35.5496 26.9333 35.5496 27.8V40.65C35.5496 42.6167 35.9496 44.0667 36.7496 45C37.5496 45.9333 38.8163 46.4 40.5496 46.4C42.4496 46.4 43.9829 45.7667 45.1496 44.5C46.3496 43.2 46.9496 41.5 46.9496 39.4V27.8C46.9496 26.9333 47.1663 26.3 47.5996 25.9C48.0329 25.4667 48.6663 25.25 49.4996 25.25C50.2996 25.25 50.9163 25.4667 51.3496 25.9C51.7829 26.3 51.9996 26.9333 51.9996 27.8V47.8C51.9996 49.5 51.1829 50.35 49.5496 50.35C48.7829 50.35 48.1829 50.1333 47.7496 49.7C47.3163 49.2333 47.0996 48.6 47.0996 47.8V43.55L47.7496 44.65C47.0829 46.5167 46.0163 47.95 44.5496 48.95C43.0829 49.95 41.3496 50.45 39.3496 50.45ZM69.5164 50.45C67.5164 50.45 65.8331 50.1 64.4664 49.4C63.0997 48.7 62.0831 47.6667 61.4164 46.3C60.7497 44.9333 60.4164 43.2667 60.4164 41.3V29.5H57.4164C56.7497 29.5 56.2331 29.3333 55.8664 29C55.4997 28.6333 55.3164 28.15 55.3164 27.55C55.3164 26.9167 55.4997 26.4333 55.8664 26.1C56.2331 25.7667 56.7497 25.6 57.4164 25.6H60.4164V20.45C60.4164 19.6167 60.6331 18.9833 61.0664 18.55C61.5331 18.1167 62.1664 17.9 62.9664 17.9C63.7664 17.9 64.3831 18.1167 64.8164 18.55C65.2497 18.9833 65.4664 19.6167 65.4664 20.45V25.6H71.3164C71.9831 25.6 72.4997 25.7667 72.8664 26.1C73.2331 26.4333 73.4164 26.9167 73.4164 27.55C73.4164 28.15 73.2331 28.6333 72.8664 29C72.4997 29.3333 71.9831 29.5 71.3164 29.5H65.4664V40.9C65.4664 42.6667 65.8331 44 66.5664 44.9C67.3331 45.8 68.5664 46.25 70.2664 46.25C70.8664 46.25 71.3831 46.2 71.8164 46.1C72.2831 45.9667 72.6664 45.8833 72.9664 45.85C73.3331 45.85 73.6331 45.9833 73.8664 46.25C74.0997 46.4833 74.2164 46.95 74.2164 47.65C74.2164 48.15 74.1164 48.6167 73.9164 49.05C73.7497 49.4833 73.4331 49.7667 72.9664 49.9C72.5664 50.0333 72.0164 50.15 71.3164 50.25C70.6497 50.3833 70.0497 50.45 69.5164 50.45ZM86.0781 50.45C84.1115 50.45 82.4615 50.0833 81.1281 49.35C79.8281 48.6167 78.8448 47.5333 78.1781 46.1C77.5448 44.6333 77.2281 42.8 77.2281 40.6V27.8C77.2281 26.9333 77.4448 26.3 77.8781 25.9C78.3115 25.4667 78.9281 25.25 79.7281 25.25C80.5281 25.25 81.1448 25.4667 81.5781 25.9C82.0448 26.3 82.2781 26.9333 82.2781 27.8V40.65C82.2781 42.6167 82.6781 44.0667 83.4781 45C84.2781 45.9333 85.5448 46.4 87.2781 46.4C89.1781 46.4 90.7115 45.7667 91.8781 44.5C93.0781 43.2 93.6781 41.5 93.6781 39.4V27.8C93.6781 26.9333 93.8948 26.3 94.3281 25.9C94.7615 25.4667 95.3948 25.25 96.2281 25.25C97.0281 25.25 97.6448 25.4667 98.0781 25.9C98.5115 26.3 98.7281 26.9333 98.7281 27.8V47.8C98.7281 49.5 97.9115 50.35 96.2781 50.35C95.5115 50.35 94.9115 50.1333 94.4781 49.7C94.0448 49.2333 93.8281 48.6 93.8281 47.8V43.55L94.4781 44.65C93.8115 46.5167 92.7448 47.95 91.2781 48.95C89.8115 49.95 88.0781 50.45 86.0781 50.45ZM108.395 50.35C107.562 50.35 106.928 50.1333 106.495 49.7C106.062 49.2333 105.845 48.6 105.845 47.8V27.8C105.845 26.9667 106.062 26.3333 106.495 25.9C106.928 25.4667 107.528 25.25 108.295 25.25C109.095 25.25 109.695 25.4667 110.095 25.9C110.528 26.3333 110.745 26.9667 110.745 27.8V31.45H110.245C110.778 29.45 111.762 27.9333 113.195 26.9C114.628 25.8667 116.462 25.2667 118.695 25.1C119.295 25.0667 119.762 25.2167 120.095 25.55C120.462 25.8833 120.662 26.4 120.695 27.1C120.762 27.8 120.612 28.3667 120.245 28.8C119.878 29.2 119.312 29.4333 118.545 29.5L117.595 29.6C115.428 29.8 113.778 30.4833 112.645 31.65C111.512 32.8167 110.945 34.4167 110.945 36.45V47.8C110.945 48.6 110.728 49.2333 110.295 49.7C109.895 50.1333 109.262 50.35 108.395 50.35ZM135.461 50.35C134.761 50.35 134.144 50.1667 133.611 49.8C133.111 49.4333 132.694 48.8667 132.361 48.1L124.011 28.7C123.744 28.1 123.644 27.5333 123.711 27C123.778 26.4667 124.028 26.05 124.461 25.75C124.894 25.4167 125.478 25.25 126.211 25.25C126.844 25.25 127.344 25.4 127.711 25.7C128.078 26 128.411 26.5167 128.711 27.25L136.261 45.85H134.861L142.561 27.25C142.861 26.5167 143.194 26 143.561 25.7C143.961 25.4 144.511 25.25 145.211 25.25C145.811 25.25 146.278 25.4167 146.611 25.75C146.978 26.05 147.194 26.4667 147.261 27C147.361 27.5 147.278 28.05 147.011 28.65L138.561 48.1C138.261 48.8667 137.844 49.4333 137.311 49.8C136.778 50.1667 136.161 50.35 135.461 50.35ZM154.488 50.3C153.688 50.3 153.071 50.0667 152.638 49.6C152.204 49.1 151.988 48.4167 151.988 47.55V28.05C151.988 27.1833 152.204 26.5167 152.638 26.05C153.071 25.5833 153.688 25.35 154.488 25.35C155.288 25.35 155.904 25.5833 156.338 26.05C156.804 26.5167 157.038 27.1833 157.038 28.05V47.55C157.038 48.4167 156.821 49.1 156.388 49.6C155.954 50.0667 155.321 50.3 154.488 50.3ZM154.488 20.15C153.488 20.15 152.704 19.9 152.138 19.4C151.604 18.9 151.338 18.2 151.338 17.3C151.338 16.3667 151.604 15.6667 152.138 15.2C152.704 14.7 153.488 14.45 154.488 14.45C155.488 14.45 156.254 14.7 156.788 15.2C157.354 15.6667 157.638 16.3667 157.638 17.3C157.638 18.2 157.354 18.9 156.788 19.4C156.254 19.9 155.488 20.15 154.488 20.15ZM175.596 50.45C172.929 50.45 170.629 49.95 168.696 48.95C166.796 47.9167 165.312 46.4667 164.246 44.6C163.212 42.7 162.696 40.45 162.696 37.85C162.696 35.3167 163.212 33.1 164.246 31.2C165.279 29.3 166.696 27.8167 168.496 26.75C170.296 25.6833 172.346 25.15 174.646 25.15C176.346 25.15 177.862 25.4333 179.196 26C180.529 26.5333 181.662 27.3333 182.596 28.4C183.562 29.4333 184.279 30.7 184.746 32.2C185.246 33.7 185.496 35.3833 185.496 37.25C185.496 37.8167 185.329 38.25 184.996 38.55C184.662 38.8167 184.162 38.95 183.496 38.95H166.696V35.85H182.096L181.246 36.55C181.246 34.8833 180.996 33.4667 180.496 32.3C180.029 31.1333 179.312 30.25 178.346 29.65C177.412 29.0167 176.246 28.7 174.846 28.7C173.279 28.7 171.946 29.0667 170.846 29.8C169.779 30.5333 168.962 31.55 168.396 32.85C167.829 34.15 167.546 35.6667 167.546 37.4V37.7C167.546 40.6333 168.229 42.85 169.596 44.35C170.996 45.8167 173.012 46.55 175.646 46.55C176.646 46.55 177.696 46.4167 178.796 46.15C179.929 45.8833 180.996 45.4333 181.996 44.8C182.562 44.4667 183.062 44.3167 183.496 44.35C183.962 44.3833 184.329 44.5333 184.596 44.8C184.896 45.0667 185.079 45.4 185.146 45.8C185.212 46.2 185.146 46.6167 184.946 47.05C184.746 47.45 184.396 47.8167 183.896 48.15C182.762 48.9167 181.446 49.5 179.946 49.9C178.446 50.2667 176.996 50.45 175.596 50.45ZM199.559 50.35C198.859 50.35 198.243 50.1833 197.709 49.85C197.209 49.4833 196.809 48.9167 196.509 48.15L189.159 28.7C188.893 28.0333 188.809 27.45 188.909 26.95C189.009 26.4167 189.259 26 189.659 25.7C190.093 25.4 190.643 25.25 191.309 25.25C191.909 25.25 192.393 25.4 192.759 25.7C193.159 25.9667 193.493 26.5 193.759 27.3L200.309 45.75H199.109L205.909 27.1C206.143 26.4667 206.459 26 206.859 25.7C207.259 25.4 207.776 25.25 208.409 25.25C209.043 25.25 209.559 25.4 209.959 25.7C210.393 26 210.709 26.4667 210.909 27.1L217.559 45.75H216.459L223.109 27.2C223.376 26.4333 223.709 25.9167 224.109 25.65C224.543 25.3833 225.026 25.25 225.559 25.25C226.226 25.25 226.726 25.4167 227.059 25.75C227.426 26.0833 227.626 26.5167 227.659 27.05C227.726 27.55 227.643 28.1 227.409 28.7L220.059 48.15C219.759 48.8833 219.343 49.4333 218.809 49.8C218.309 50.1667 217.726 50.35 217.059 50.35C216.359 50.35 215.743 50.1667 215.209 49.8C214.709 49.4333 214.309 48.8833 214.009 48.15L207.009 29.2H209.509L202.559 48.15C202.293 48.8833 201.893 49.4333 201.359 49.8C200.859 50.1667 200.259 50.35 199.559 50.35Z" fill="url(#paint0_linear_22_1475)"/>
  <defs>
  <linearGradient id="paint0_linear_22_1475" x1="231.498" y1="6.52884e-06" x2="-135.768" y2="47.5379" gradientUnits="userSpaceOnUse">
    <stop offset="0.119792" stop-color="#043F8D"/>
    <stop offset="0.578125" stop-color="#FFB7E3"/>
    <stop offset="0.78125" stop-color="#F01C9E"/>
  </linearGradient>
  </defs>
</svg>